<svg xmlns="http://www.w3.org/2000/svg" width="256" height="32"><path fill="#c7133e" d="M144.012 16.022c0 8.837-7.164 16.001-16.001 16.001s-16.001-7.164-16.001-16.001c0-8.837 7.164-16.001 16.001-16.001s16.001 7.164 16.001 16.001zM32.003 16.022c0 8.837-7.164 16.001-16.001 16.001S.001 24.859.001 16.022C.001 7.185 7.165.021 16.002.021s16.001 7.164 16.001 16.001zM256.022 16.022c0 8.837-7.164 16.001-16.001 16.001s-16.001-7.164-16.001-16.001c0-8.837 7.164-16.001 16.001-16.001s16.001 7.164 16.001 16.001z"/></svg>