<svg xmlns="http://www.w3.org/2000/svg" width="35" height="32"><path fill="#d31342" d="M32.667 15.403a1.54 1.54 0 0 0-.128-2.224l-.002-.002L17.751.417a1.852 1.852 0 0 0-1.185-.426c-.466 0-.892.171-1.219.454l.002-.002L.515 13.857A1.529 1.529 0 0 0 0 15.003c0 .42.169.801.443 1.078l.374.382c.614.635 1.612.71 2.226.168l1.108-.979v14.34c.006.88.721 1.591 1.601 1.591h5.807a1.6 1.6 0 0 0 1.601-1.59V19.96h7.377v10.032c-.013.881.625 1.591 1.516 1.591h6.139a1.6 1.6 0 0 0 1.601-1.59V15.855l.686.593c.376.326 1.169.064 1.767-.587l.422-.454z"/></svg>