<svg aria-hidden="true" style="width:0;height:0;position:absolute;overflow:hidden" xmlns="http://www.w3.org/2000/svg"><defs><symbol id="icon-menu_40px" viewBox="0 0 32 32"><path d="M6.4 11.734V9.6h19.2v2.134H6.4zm0 5.332h19.2v-2.133H6.4v2.133zm0 5.334h19.2v-2.134H6.4V22.4z"/></symbol><symbol id="icon-for-btn" viewBox="0 0 19 32"><path d="M3.2 3.2 16 16 3.2 28.8"/></symbol><symbol id="icon-customer-brackets" viewBox="0 0 43 32"><path d="M32.014 0c1.928 0 3.75.52 5.464 1.561s3.107 2.537 4.178 4.488c1.029 1.951 1.543 4.25 1.543 6.894s-.643 5.225-1.928 7.74c-.429.91-1.2 2.081-2.315 3.512a63.65 63.65 0 0 1-3.214 3.707L31.692 32l-2.893-4.813a22.225 22.225 0 0 0 5.306-4.646l.03-.037c1.542-1.821 2.314-3.49 2.314-5.008 0-.781-.171-1.41-.514-1.886a8.361 8.361 0 0 1-5.014 1.626c-1.328 0-2.593-.412-3.793-1.236a8.638 8.638 0 0 1-2.935-3.078l-.022-.043c-.771-1.258-1.157-2.558-1.157-3.902 0-1.518.45-2.97 1.35-4.358a10.313 10.313 0 0 1 3.364-3.356l.044-.025C29.142.414 30.556.002 32.014.002zM8.936 0c1.928 0 3.75.52 5.464 1.561s3.107 2.536 4.178 4.488c1.029 1.951 1.543 4.25 1.543 6.894 0 1.864-.236 3.534-.707 5.008-.472 1.518-1.286 3.1-2.443 4.748-1.114 1.561-2.164 2.862-3.15 3.902-.986 1.084-2.7 2.883-5.143 5.398l-2.893-4.813a22.225 22.225 0 0 0 5.306-4.646l.03-.037c1.542-1.821 2.314-3.49 2.314-5.008 0-.781-.172-1.41-.514-1.886a8.361 8.361 0 0 1-5.014 1.626c-1.328 0-2.593-.412-3.793-1.236a8.638 8.638 0 0 1-2.935-3.078l-.022-.043C.386 11.62 0 10.32 0 8.976c0-1.518.429-2.97 1.286-4.358A10.313 10.313 0 0 1 4.65 1.262l.045-.025C6.065.413 7.479.001 8.937.001z"/></symbol><symbol id="icon-ellipse" viewBox="0 0 32 32"><path d="M32 16c0 8.837-7.163 16-16 16S0 24.837 0 16 7.163 0 16 0s16 7.163 16 16z"/></symbol><symbol id="icon-house" viewBox="0 0 32 32"><path d="M31.6 16.765a1.357 1.357 0 0 0-.122-2.032l-.003-.002L17.174 3.056a1.869 1.869 0 0 0-1.146-.389c-.448 0-.86.157-1.183.419l.004-.003L.5 15.35a1.348 1.348 0 0 0-.07 2.037l.001.001.36.347c.595.581 1.56.651 2.152.155l1.072-.896v13.117c0 .803.701 1.456 1.563 1.456h5.592c.864 0 1.563-.653 1.563-1.456v-9.176h7.133v9.208a1.42 1.42 0 0 0 1.421 1.421l.048-.001h-.002 5.928c.861 0 1.56-.651 1.56-1.456V17.179s.299.24.664.541c.363.299 1.131.059 1.709-.536l.408-.419z"/></symbol><symbol id="icon-soc-facebook" viewBox="0 0 16 32"><path d="M14.143 15.971H10.11v14.865H3.998V15.971H1.092v-5.222h2.906V7.367c0-2.417 1.142-6.204 6.167-6.204l4.527.019v5.072h-3.284c-.538 0-1.297.272-1.297 1.425v3.073h4.567l-.534 5.219z"/></symbol><symbol id="icon-soc-github" viewBox="0 0 32 32"><path d="M16 0C7.211 0 0 7.211 0 16c0 7.499 5.262 14.312 12.25 16v-5.293a3.921 3.921 0 0 1-2.062-.06l.028.007c-.946-.278-1.714-.909-2.285-1.869-.363-.613-1.008-1.28-1.68-1.23l-.165-1.867c1.454-.125 2.71.886 3.456 2.139.333.558.715.885 1.205 1.029.472.141.981.074 1.573-.136.149-1.186.693-1.629 1.104-2.256-4.168-.621-5.829-2.832-6.488-4.576-.874-2.318-.405-5.213 1.139-7.043.03-.035.085-.128.064-.192-.709-2.141.154-3.91.186-4.098.818.24.95-.243 3.552 1.336l.448.27c.189.112.128.048.317.032a13.246 13.246 0 0 1 3.349-.469h.01c1.136.014 2.272.176 3.403.483l.146.016c-.013-.003.04-.01.128-.062 3.248-1.968 3.131-1.325 4.003-1.608.032.189.882 1.987.182 4.099-.096.291 2.816 2.957 1.202 7.235-.659 1.744-2.32 3.957-6.486 4.578.534.816 1.176 1.248 1.173 2.928v6.606c6.986-1.688 12.25-8.501 12.25-16 0-8.789-7.211-16-16-16z"/></symbol><symbol id="icon-soc-telegram" viewBox="0 0 44 32"><path d="m17.342 21.048-.674 8.86c.966 0 1.384-.388 1.886-.852l4.526-4.04 9.38 6.414c1.72.894 2.934.422 3.4-1.478L42.016 3.02c.548-2.374-.92-3.302-2.594-2.72L3.228 13.234c-2.47.896-2.434 2.18-.42 2.766l9.252 2.684L33.554 6.132c1.012-.626 1.932-.28 1.176.346l-17.39 14.57z"/></symbol><symbol id="icon-arrow-right" viewBox="0 0 32 32"><path d="M0 0h32v32H0z"/></symbol><symbol id="icon-burger" viewBox="0 0 46 32"><path d="M0 2.286h45.714M0 16h45.714M0 29.714h45.714"/></symbol><symbol id="icon-close" viewBox="0 0 32 32"><path d="m2.52 2 26.96 28M2 29.48 30 2.52"/></symbol></defs></svg>