<svg xmlns="http://www.w3.org/2000/svg" width="43" height="32"><path fill="#e1e1e1" d="M32.018-.002c1.928 0 3.75.52 5.465 1.561s3.108 2.537 4.179 4.488c1.029 1.951 1.543 4.25 1.543 6.895s-.643 5.225-1.928 7.741c-.429.91-1.2 2.081-2.315 3.512a63.366 63.366 0 0 1-3.214 3.708l-4.051 4.098-2.893-4.813a22.23 22.23 0 0 0 5.307-4.647l.03-.037c1.543-1.821 2.314-3.491 2.314-5.009 0-.781-.171-1.41-.514-1.887a8.363 8.363 0 0 1-5.015 1.627c-1.328 0-2.593-.412-3.793-1.236a8.635 8.635 0 0 1-2.936-3.079l-.022-.043c-.771-1.258-1.157-2.559-1.157-3.903 0-1.519.45-2.971 1.35-4.359a10.326 10.326 0 0 1 3.364-3.357l.044-.025C29.147.409 30.56-.003 32.018-.003zm-23.081 0c1.928 0 3.75.52 5.465 1.561s3.108 2.536 4.179 4.488c1.029 1.951 1.543 4.25 1.543 6.895 0 1.864-.236 3.534-.707 5.008-.472 1.518-1.286 3.1-2.443 4.748-1.114 1.561-2.164 2.862-3.15 3.903-.986 1.084-2.7 2.884-5.144 5.399l-2.893-4.813a22.23 22.23 0 0 0 5.307-4.647l.03-.037c1.543-1.821 2.315-3.491 2.315-5.009 0-.781-.172-1.41-.514-1.887a8.363 8.363 0 0 1-5.015 1.627c-1.328 0-2.593-.412-3.793-1.236a8.635 8.635 0 0 1-2.936-3.079l-.022-.043C.388 11.618.002 10.317.002 8.973c0-1.519.429-2.971 1.286-4.359a10.326 10.326 0 0 1 3.364-3.357l.045-.025C6.068.408 7.481-.004 8.94-.004z"/></svg>