<!-- Generated by IcoMoon.io -->
<svg version="1.1" xmlns="http://www.w3.org/2000/svg" width="35" height="32" viewBox="0 0 35 32">
<title>house-icon</title>
<path fill="#d31342" d="M32.667 15.403c0.256-0.275 0.413-0.644 0.413-1.050 0-0.47-0.21-0.891-0.541-1.174l-0.002-0.002-14.786-12.76c-0.319-0.265-0.734-0.426-1.185-0.426-0.466 0-0.892 0.171-1.219 0.454l0.002-0.002-14.834 13.414c-0.317 0.282-0.515 0.691-0.515 1.146 0 0.42 0.169 0.801 0.443 1.078l-0-0 0.374 0.382c0.614 0.635 1.612 0.71 2.226 0.168l1.108-0.979v14.34c0.006 0.88 0.721 1.591 1.601 1.591 0.005 0 0.009-0 0.014-0h5.78c0.004 0 0.009 0 0.013 0 0.881 0 1.595-0.711 1.601-1.59v-10.033h7.377v10.032c-0.013 0.881 0.625 1.591 1.516 1.591h6.128c0.003 0 0.007 0 0.011 0 0.881 0 1.595-0.711 1.601-1.59v-14.138l0.686 0.593c0.376 0.326 1.169 0.064 1.767-0.587l0.422-0.454z"></path>
</svg>
