<!-- Generated by IcoMoon.io -->
<svg version="1.1" xmlns="http://www.w3.org/2000/svg" width="43" height="32" viewBox="0 0 43 32">
<title>marks</title>
<path fill="#e1e1e1" d="M32.018-0.002c1.928 0 3.75 0.52 5.465 1.561s3.108 2.537 4.179 4.488c1.029 1.951 1.543 4.25 1.543 6.895s-0.643 5.225-1.928 7.741c-0.429 0.91-1.2 2.081-2.315 3.512-1.157 1.431-2.228 2.667-3.214 3.708l-4.051 4.098-2.893-4.813c2.063-1.302 3.824-2.855 5.307-4.647l0.030-0.037c1.543-1.821 2.314-3.491 2.314-5.009 0-0.781-0.171-1.41-0.514-1.887-1.5 1.084-3.172 1.627-5.015 1.627-1.328 0-2.593-0.412-3.793-1.236-1.238-0.782-2.237-1.834-2.936-3.079l-0.022-0.043c-0.771-1.258-1.157-2.559-1.157-3.903 0-1.519 0.45-2.971 1.35-4.359 0.866-1.389 2.011-2.526 3.364-3.357l0.044-0.025c1.371-0.824 2.784-1.236 4.242-1.236zM8.937-0.002c1.928 0 3.75 0.52 5.465 1.561s3.108 2.536 4.179 4.488c1.029 1.951 1.543 4.25 1.543 6.895 0 1.864-0.236 3.534-0.707 5.008-0.472 1.518-1.286 3.1-2.443 4.748-1.114 1.561-2.164 2.862-3.15 3.903-0.986 1.084-2.7 2.884-5.144 5.399l-2.893-4.813c2.063-1.302 3.824-2.855 5.307-4.647l0.030-0.037c1.543-1.821 2.315-3.491 2.315-5.009 0-0.781-0.172-1.41-0.514-1.887-1.5 1.084-3.172 1.627-5.015 1.627-1.328 0-2.593-0.412-3.793-1.236-1.238-0.782-2.237-1.834-2.936-3.079l-0.022-0.043c-0.771-1.258-1.157-2.559-1.157-3.903 0-1.519 0.429-2.971 1.286-4.359 0.866-1.389 2.011-2.526 3.364-3.357l0.045-0.025c1.371-0.824 2.784-1.236 4.243-1.236z"></path>
</svg>
